<svg width="100" height="100" viewBox="0 0 100 100" fill="none" xmlns="http://www.w3.org/2000/svg" style="width: 150px; height: 150px;"><style>
     .line-interface3-a {animation:line-interface3-draw 2s infinite; stroke-dasharray: 120;}
     .line-interface3-b {animation:line-interface3-draw 2s infinite; stroke-dasharray: 130;}
     .line-interface3-c {animation:line-interface3-draw 2s infinite; stroke-dasharray: 130;}
     .line-interface3-d {animation:line-interface3-draw 2s infinite; stroke-dasharray: 180;}
     @keyframes line-interface3-draw {
         0%{stroke-dashoffset: 180;}
         20%{stroke-dashoffset: 180;}
         60%{stroke-dashoffset: 0;}
         100%{stroke-dashoffset: 0;}
     }
     @media (prefers-reduced-motion: reduce) {
         .line-interface3-a, .line-interface3-b, .line-interface3-c, .line-interface3-d {
             animation: none;
         }
     }
    </style><rect class="stroke1 fill1" x="3" y="6" width="94" height="88" rx="9" fill="#fff" stroke="#000" stroke-width="2px" style="animation-duration: 3.5s;"></rect><line class="stroke1" x1="3" y1="28" x2="97" y2="28" stroke="#000" stroke-width="2px" style="animation-duration: 3.5s;"></line><line class="line-interface3-a stroke1" x1="48" y1="67" x2="88" y2="67" stroke="#000" stroke-width="2px" style="animation-duration: 3.5s;"></line><line class="line-interface3-b stroke1" x1="48" y1="81" x2="88" y2="81" stroke="#000" stroke-width="2px" style="animation-duration: 3.5s;"></line><path class="line-interface3-c stroke1" d="M16 66H38C39.1046 66 40 66.8954 40 68V79C40 80.1046 39.1046 81 38 81H16C14.8954 81 14 80.1046 14 79V68C14 66.8954 14.8954 66 16 66Z" stroke="#000" stroke-width="2px" style="animation-duration: 3.5s;"></path><path class="line-interface3-d stroke1" d="M16 39H85C86.1046 39 87 39.8954 87 41V52C87 53.1046 86.1046 54 85 54H16C14.8954 54 14 53.1046 14 52V41C14 39.8954 14.8954 39 16 39Z" stroke="#000" stroke-width="2px" style="animation-duration: 3.5s;"></path></svg>